# xmcd
#
# Track frame offsets:
#	150
#	12977
#	34721
#	49285
#	62268
#	77191
#	99252
#	120423
#	133630
#	151601
#	173118
#	181268
#
# Disc length: 2668 seconds
#
# Revision: 0
# Processed by: cddbd v1.5PL3 Copyright (c) Steve Scherf et al.
# Submitted via: MusicManager 7.0.3.0 
#
DISCID=870a6a0c
DTITLE=Jeff Beck - Hi-Ho Silver Lining
DYEAR=2004
DGENRE=blues
TTITLE0=Hi-Ho Silver Lining
TTITLE1=All Shook Up (Featuring Rod Stewart)
TTITLE2=Jailhouse Rock
TTITLE3=Beck's Bolero (Featuring Rod Stewart)
TTITLE4=Shapes Of Things (Featuring Rod Stewart)
TTITLE5=I Ain't Superstitious (Featuring Rod Stewart)
TTITLE6=Let Me Love You
TTITLE7=Love Is Blue
TTITLE8=Ol' Man River
TTITLE9=The Hangman's Knee
TTITLE10=Greensleeves (Featuring Rod Stewart)
TTITLE11=Rock My Plimsoll (Featuring Rod Stewart)
EXTD=
EXTT0=
EXTT1=
EXTT2=
EXTT3=
EXTT4=
EXTT5=
EXTT6=
EXTT7=
EXTT8=
EXTT9=
EXTT10=
EXTT11=
PLAYORDER=
